# xmcd CD database file
#
# Track frame offsets:
#	150
#	8073
#	23231
#	41111
#	58440
#	68024
#	93634
#	109985
#	126843
#	141566
#	166508
#	187506
#
# Disc length: 2770 seconds
#
# Revision: 0
# Processed by: cddbd v1.5.2PL0 Copyright (c) Steve Scherf et al.
# Submitted via: CDex 1.70beta2
#
DISCID=a30ad00c
DTITLE=Jesse Cook - Nomad
DYEAR=2003
DGENRE=New Age
TTITLE0=Prelude
TTITLE1=Qadukka-l-Mayyas
TTITLE2=Surrender
TTITLE3=Early On Tuesday
TTITLE4=Beloved
TTITLE5=Waiting for Tide
TTITLE6=Down Like Rain
TTITLE7=Leila
TTITLE8=Maybe
TTITLE9=Nomad
TTITLE10=Worlds Away
TTITLE11=Toca Orilla
EXTD=YEAR: 2003
EXTT0=
EXTT1=
EXTT2=
EXTT3=
EXTT4=
EXTT5=
EXTT6=
EXTT7=
EXTT8=
EXTT9=
EXTT10=
EXTT11=
PLAYORDER=
